<svg width="170" height="25" viewBox="0 0 170 25" fill="none" xmlns="http://www.w3.org/2000/svg">
<path d="M4.94318 0.727272V24H0.0227273V0.727272H4.94318ZM13.7415 13.9091V24H8.90057V6.54545H13.5142V9.625H13.7188C14.1051 8.60985 14.7528 7.80682 15.6619 7.21591C16.571 6.61742 17.6733 6.31818 18.9688 6.31818C20.1809 6.31818 21.2377 6.58333 22.1392 7.11364C23.0407 7.64394 23.7415 8.40151 24.2415 9.38636C24.7415 10.3636 24.9915 11.5303 24.9915 12.8864V24H20.1506V13.75C20.1581 12.6818 19.8854 11.8485 19.3324 11.25C18.7794 10.6439 18.018 10.3409 17.0483 10.3409C16.3968 10.3409 15.821 10.4811 15.321 10.7614C14.8286 11.0417 14.4422 11.4508 14.1619 11.9886C13.8892 12.5189 13.7491 13.1591 13.7415 13.9091ZM43.3295 11.5227L38.8977 11.7955C38.822 11.4167 38.6591 11.0758 38.4091 10.7727C38.1591 10.4621 37.8295 10.2159 37.4205 10.0341C37.0189 9.8447 36.5379 9.75 35.9773 9.75C35.2273 9.75 34.5947 9.90909 34.0795 10.2273C33.5644 10.5379 33.3068 10.9545 33.3068 11.4773C33.3068 11.8939 33.4735 12.2462 33.8068 12.5341C34.1402 12.822 34.7121 13.053 35.5227 13.2273L38.6818 13.8636C40.3788 14.2121 41.6439 14.7727 42.4773 15.5455C43.3106 16.3182 43.7273 17.3333 43.7273 18.5909C43.7273 19.7348 43.3902 20.7386 42.7159 21.6023C42.0492 22.4659 41.1326 23.1402 39.9659 23.625C38.8068 24.1023 37.4697 24.3409 35.9545 24.3409C33.6439 24.3409 31.803 23.8598 30.4318 22.8977C29.0682 21.928 28.2689 20.6098 28.0341 18.9432L32.7955 18.6932C32.9394 19.3977 33.2879 19.9356 33.8409 20.3068C34.3939 20.6705 35.1023 20.8523 35.9659 20.8523C36.8144 20.8523 37.4962 20.6894 38.0114 20.3636C38.5341 20.0303 38.7992 19.6023 38.8068 19.0795C38.7992 18.6402 38.6136 18.2803 38.25 18C37.8864 17.7121 37.3258 17.4924 36.5682 17.3409L33.5455 16.7386C31.8409 16.3977 30.572 15.8068 29.7386 14.9659C28.9129 14.125 28.5 13.053 28.5 11.75C28.5 10.6288 28.803 9.66288 29.4091 8.85227C30.0227 8.04167 30.8826 7.41667 31.9886 6.97727C33.1023 6.53788 34.4053 6.31818 35.8977 6.31818C38.1023 6.31818 39.8371 6.78409 41.1023 7.71591C42.375 8.64773 43.1174 9.91667 43.3295 11.5227ZM57.9688 16.5682V6.54545H62.8097V24H58.1619V20.8295H57.9801C57.5862 21.8523 56.9309 22.6742 56.0142 23.2955C55.1051 23.9167 53.9953 24.2273 52.6847 24.2273C51.518 24.2273 50.4915 23.9621 49.6051 23.4318C48.7188 22.9015 48.0256 22.1477 47.5256 21.1705C47.0331 20.1932 46.7831 19.0227 46.7756 17.6591V6.54545H51.6165V16.7955C51.6241 17.8258 51.9006 18.6402 52.446 19.2386C52.9915 19.8371 53.7225 20.1364 54.6392 20.1364C55.2225 20.1364 55.768 20.0038 56.2756 19.7386C56.7831 19.4659 57.1922 19.0644 57.5028 18.5341C57.821 18.0038 57.9763 17.3485 57.9688 16.5682ZM66.6818 24V6.54545H71.375V9.59091H71.5568C71.875 8.50758 72.4091 7.68939 73.1591 7.13636C73.9091 6.57576 74.7727 6.29545 75.75 6.29545C75.9924 6.29545 76.2538 6.31061 76.5341 6.34091C76.8144 6.37121 77.0606 6.41288 77.2727 6.46591V10.7614C77.0455 10.6932 76.7311 10.6326 76.3295 10.5795C75.928 10.5265 75.5606 10.5 75.2273 10.5C74.5152 10.5 73.8788 10.6553 73.3182 10.9659C72.7652 11.2689 72.3258 11.6932 72 12.2386C71.6818 12.7841 71.5227 13.4129 71.5227 14.125V24H66.6818ZM86.9176 24.3409C85.1222 24.3409 83.5767 23.9773 82.2812 23.25C80.9934 22.5152 80.0009 21.4773 79.304 20.1364C78.607 18.7879 78.2585 17.1932 78.2585 15.3523C78.2585 13.5568 78.607 11.9811 79.304 10.625C80.0009 9.26894 80.982 8.21212 82.2472 7.45454C83.5199 6.69697 85.0123 6.31818 86.7244 6.31818C87.8759 6.31818 88.9479 6.50379 89.9403 6.875C90.9403 7.23864 91.8116 7.78788 92.554 8.52273C93.304 9.25758 93.8873 10.1818 94.304 11.2955C94.7206 12.4015 94.929 13.697 94.929 15.1818V16.5114H80.1903V13.5114H90.3722C90.3722 12.8144 90.2206 12.197 89.9176 11.6591C89.6146 11.1212 89.1941 10.7008 88.6562 10.3977C88.1259 10.0871 87.5085 9.93182 86.804 9.93182C86.0691 9.93182 85.4176 10.1023 84.8494 10.4432C84.2888 10.7765 83.8494 11.2273 83.5312 11.7955C83.2131 12.3561 83.0502 12.9811 83.0426 13.6705V16.5227C83.0426 17.3864 83.2017 18.1326 83.5199 18.7614C83.8456 19.3902 84.304 19.875 84.8949 20.2159C85.4858 20.5568 86.1866 20.7273 86.9972 20.7273C87.535 20.7273 88.0275 20.6515 88.4744 20.5C88.9214 20.3485 89.304 20.1212 89.6222 19.8182C89.9403 19.5152 90.1828 19.1439 90.3494 18.7045L94.8267 19C94.5994 20.0758 94.1335 21.0152 93.429 21.8182C92.732 22.6136 91.8305 23.2348 90.7244 23.6818C89.6259 24.1212 88.357 24.3409 86.9176 24.3409ZM95.6676 4.78409V0.727272H114.781V4.78409H107.656V24H102.793V4.78409H95.6676ZM123.261 24.3409C121.466 24.3409 119.92 23.9773 118.625 23.25C117.337 22.5152 116.345 21.4773 115.648 20.1364C114.951 18.7879 114.602 17.1932 114.602 15.3523C114.602 13.5568 114.951 11.9811 115.648 10.625C116.345 9.26894 117.326 8.21212 118.591 7.45454C119.864 6.69697 121.356 6.31818 123.068 6.31818C124.22 6.31818 125.292 6.50379 126.284 6.875C127.284 7.23864 128.155 7.78788 128.898 8.52273C129.648 9.25758 130.231 10.1818 130.648 11.2955C131.064 12.4015 131.273 13.697 131.273 15.1818V16.5114H116.534V13.5114H126.716C126.716 12.8144 126.564 12.197 126.261 11.6591C125.958 11.1212 125.538 10.7008 125 10.3977C124.47 10.0871 123.852 9.93182 123.148 9.93182C122.413 9.93182 121.761 10.1023 121.193 10.4432C120.633 10.7765 120.193 11.2273 119.875 11.7955C119.557 12.3561 119.394 12.9811 119.386 13.6705V16.5227C119.386 17.3864 119.545 18.1326 119.864 18.7614C120.189 19.3902 120.648 19.875 121.239 20.2159C121.83 20.5568 122.53 20.7273 123.341 20.7273C123.879 20.7273 124.371 20.6515 124.818 20.5C125.265 20.3485 125.648 20.1212 125.966 19.8182C126.284 19.5152 126.527 19.1439 126.693 18.7045L131.17 19C130.943 20.0758 130.477 21.0152 129.773 21.8182C129.076 22.6136 128.174 23.2348 127.068 23.6818C125.97 24.1212 124.701 24.3409 123.261 24.3409ZM142.318 24.3409C140.53 24.3409 138.992 23.9621 137.705 23.2045C136.424 22.4394 135.439 21.3788 134.75 20.0227C134.068 18.6667 133.727 17.1061 133.727 15.3409C133.727 13.553 134.072 11.9848 134.761 10.6364C135.458 9.2803 136.447 8.22348 137.727 7.46591C139.008 6.70076 140.53 6.31818 142.295 6.31818C143.818 6.31818 145.152 6.5947 146.295 7.14773C147.439 7.70076 148.345 8.47727 149.011 9.47727C149.678 10.4773 150.045 11.6515 150.114 13H145.545C145.417 12.1288 145.076 11.428 144.523 10.8977C143.977 10.3598 143.261 10.0909 142.375 10.0909C141.625 10.0909 140.97 10.2955 140.409 10.7045C139.856 11.1061 139.424 11.6932 139.114 12.4659C138.803 13.2386 138.648 14.1742 138.648 15.2727C138.648 16.3864 138.799 17.3333 139.102 18.1136C139.413 18.8939 139.848 19.4886 140.409 19.8977C140.97 20.3068 141.625 20.5114 142.375 20.5114C142.928 20.5114 143.424 20.3977 143.864 20.1705C144.311 19.9432 144.678 19.6136 144.966 19.1818C145.261 18.7424 145.455 18.2159 145.545 17.6023H150.114C150.038 18.9356 149.674 20.1098 149.023 21.125C148.379 22.1326 147.489 22.9205 146.352 23.4886C145.216 24.0568 143.871 24.3409 142.318 24.3409ZM158.054 13.9091V24H153.213V0.727272H157.918V9.625H158.122C158.516 8.5947 159.152 7.78788 160.031 7.20454C160.91 6.61364 162.012 6.31818 163.338 6.31818C164.55 6.31818 165.607 6.58333 166.509 7.11364C167.418 7.63636 168.122 8.39015 168.622 9.375C169.13 10.3523 169.38 11.5227 169.372 12.8864V24H164.531V13.75C164.539 12.6742 164.266 11.8371 163.713 11.2386C163.168 10.6402 162.402 10.3409 161.418 10.3409C160.759 10.3409 160.175 10.4811 159.668 10.7614C159.168 11.0417 158.774 11.4508 158.486 11.9886C158.205 12.5189 158.062 13.1591 158.054 13.9091Z" fill="white"/>
</svg>
